<?xml version="1.0" encoding="UTF-8"?>
<svg id="Layer_1" xmlns="http://www.w3.org/2000/svg" version="1.1" viewBox="0 0 476 489.5">
  <!-- Generator: Adobe Illustrator 29.2.1, SVG Export Plug-In . SVG Version: 2.1.0 Build 116)  -->
  <path d="M-289.3,176.9c3.2-43.5-40.6-73.6-79.3-51.3-12.6,7.3-18.5,17.2-25.9,29.1-3.5,5.7-12.4,24.8-15.7,28-3,2.9-6-.5-11.9,8.4-11.5,17.4-30,49.5-38.7,68.3-2.5,5.5-3.5,8.5,0,14,4.3,6.5,13,7.2,18,1.1l44.5-78.5c.6-2.9-1.4-5.7-.6-8.4,1.4-4.5,19.5-34.4,23.1-39,30.9-39.8,77.5-6.2,73.3,29.9,0,0-2.1,11-4.1,15.2-5.8,10.3-8.1,11.3-18.7,19.5s-12.9,6.4-19.9,4.8-9.6-5.8-12.7-12.2-3.1-16.6-1.2-24.7c1.7-7.2,5.7-12.6,13.1-15.7,6.4-2.7,13.8,1.3,14,7.1s-2,10.9-7.9,13.9c-8,4.2-1.4,16.5,6.5,12.3,15.9-8.3,21-27.8,8.1-40.4s-35.4-6.1-42.7,10.2c-7.1,15.9-9.2,35,1.1,50.2,5.4,7.9,14.5,12.3,22.4,12.9s17.5-1.7,26.3-6.3c13-6.7,27.8-22.9,28.3-44.6l.3-3.7Z"/>
  <path d="M-312.2,187.2"/>
</svg>