<?xml version="1.0" encoding="UTF-8"?>
<svg id="Layer_1" xmlns="http://www.w3.org/2000/svg" version="1.1" viewBox="0 0 200 200">
  <!-- Generator: Adobe Illustrator 29.2.1, SVG Export Plug-In . SVG Version: 2.1.0 Build 116)  -->
  <defs>
    <style>
      .st0 {
        fill: #fff;
      }
    </style>
  </defs>
  <path class="st0" d="M199.7,75.3c3.7-50-46.6-84.5-91.1-58.9-14.5,8.4-21.2,19.8-29.7,33.4-4,6.5-14.2,28.5-18,32.2-3.4,3.3-6.9-.6-13.7,9.6-13.2,20-34.4,56.8-44.4,78.4-2.9,6.3-4,9.8,0,16.1,4.9,7.5,14.9,8.3,20.7,1.3l51.1-90.1c.7-3.3-1.6-6.5-.7-9.6,1.6-5.2,22.4-39.5,26.5-44.8,35.5-45.7,89-7.1,84.2,34.3,0,0-2.4,12.6-4.7,17.5-6.7,11.8-9.3,14.3-19.8,20.8-6.7,4.1-13.2,4.5-21.7,3.2-8.2-1.2-12.1-4.5-15.6-11.8s-5.3-17.3-3.2-26.6c2-8.3,6.5-14.5,15-18,7.3-3.1,15.8,1.5,16.1,8.2s-2.3,12.5-9.1,16c-9.2,4.8-1.6,18.9,7.5,14.1,18.3-9.5,24.1-31.9,9.3-46.4-14.8-14.5-40.7-7-49,11.7-8.2,18.3-7.7,36.2,4.1,53.7,6.2,9.1,16.7,14.1,25.7,14.8,9.1.7,18.7.6,28.8-4.6,14.9-7.7,31.1-29.3,31.7-54.2"/>
  <path d="M-404.5,60.7"/>
</svg>